<?xml version="1.0" encoding="utf-8"?>
<!-- Generator: Adobe Illustrator 23.0.3, SVG Export Plug-In . SVG Version: 6.00 Build 0)  -->
<svg version="1.2" baseProfile="tiny" id="Layer_1" xmlns="http://www.w3.org/2000/svg" xmlns:xlink="http://www.w3.org/1999/xlink"
	 x="0px" y="0px" viewBox="0 0 100 100" xml:space="preserve">
<g id="men_2">
	<g>
		<path fill="#F6A100" d="M100,50.11c0-27.49-22.28-49.77-49.76-49.77c-27.48,0-49.77,22.28-49.77,49.77
			c0,27.48,22.28,49.76,49.77,49.76C77.72,99.88,100,77.6,100,50.11z"/>
		<path fill="#ED9A00" d="M100,50.11c0-27.49-22.28-49.77-49.76-49.77v99.53C77.72,99.88,100,77.6,100,50.11z"/>
	</g>
	<g>
		<path fill="none" d="M68.58,38.32c0.03,0,0.07,0,0.1,0.01C68.64,38.32,68.61,38.32,68.58,38.32z"/>
		<path fill="#D9A78C" d="M50.23,72.93L50.23,72.93l7.29-2.92v-6.62c-2.6,1.16-5.45,2.09-7.29,2.09l0,0c0,0,0,0,0,0s0,0,0,0l0,0
			c-1.84,0-4.69-0.93-7.29-2.08v6.62L50.23,72.93L50.23,72.93z"/>
		<path fill="#C0D0D8" d="M47.45,94.56l1.72-17.71l-1.13-1.13l-3.35,4.26l-3.51-7.79l0,0c0,0-13.86,2.03-15.9,4.16
			c-1.07,1.11-2.82,7.93-4.24,14.06c8.2,5.96,18.29,9.48,29.2,9.48v-0.07L47.45,94.56z M43.44,93.8H34.2v-2.04h9.23V93.8z"/>
		<path fill="#A7BDC8" d="M75.19,76.34c-2.05-2.13-15.89-4.16-15.9-4.16l-3.52,7.79l-3.35-4.26l-1.12,1.12l1.72,17.71l-2.78,5.25
			l0,0v0.07c0,0,0,0,0,0c10.91,0,21-3.52,29.2-9.48C78.01,84.27,76.26,77.45,75.19,76.34z M66.27,93.8h-9.23v-2.04h9.23V93.8z"/>
		<polygon fill="#14A89A" points="49.17,76.84 47.45,94.56 50.23,99.81 50.23,99.81 53.02,94.56 51.3,76.84 50.23,77.91 		"/>
		
			<rect x="50.23" y="72.93" transform="matrix(0.7071 -0.7071 0.7071 0.7071 -36.8603 56.8838)" fill="#14A89A" width="0.01" height="0"/>
		<polygon fill="#14A89A" points="48.05,75.72 49.17,76.84 50.23,77.91 51.3,76.84 52.42,75.72 50.23,72.94 		"/>
		<path fill="#EAC0A7" d="M64.48,43.27c0.05-0.45,0.13-0.88,0.25-1.3c-0.09-1.42-0.46-3.04-1.58-3.83c0-2.45,0-3.17,0-3.17
			s0.87-0.1,0.87-3.83c0-3.71-4.4-6.35-13.78-6.39c0,7.51,0,19.3,0,30.18h5.97c0,1.34-2.67,2.43-5.97,2.43c0,2.83,0,5.57,0,8.12
			c1.84,0,4.69-0.93,7.29-2.09c2.72-1.21,5.16-2.67,5.88-3.6c1.04-1.33,2.99-5.01,4.15-10.59C65.55,48.82,64.18,46.21,64.48,43.27z"
			/>
		<path fill="#EAC0A7" d="M68.39,38.31c-0.49,0-1.26,0.09-1.88,0.61c-0.11,0.09-0.19,0.22-0.27,0.38
			C66.86,38.69,67.61,38.33,68.39,38.31z"/>
		<polygon fill="#EAC0A7" points="50.23,65.47 50.23,65.47 50.23,65.47 		"/>
		<path fill="#EAC0A7" d="M68.67,38.32c-0.03,0-0.07,0-0.1-0.01c-0.06,0-0.12-0.01-0.19-0.01c-0.78,0.02-1.52,0.38-2.15,0.99
			c-0.7,1.43-0.34,5.33-0.34,5.33h-1.26c0,0,0.19-1.23,0.1-2.66c-0.12,0.41-0.2,0.84-0.25,1.3c-0.31,2.95,1.07,5.55,3.08,5.93
			c0.04,0.01,0.08,0.03,0.13,0.04c2.08,0.29,4.02-1.92,4.33-4.94c0.31-2.99-1.11-5.64-3.16-5.96v0
			C68.86,38.34,68.78,38.33,68.67,38.32z"/>
		<path fill="#F2D7BC" d="M32.86,38.45c0.33,0.11,0.64,0.27,0.93,0.48c0,0,0-0.01-0.01-0.01C33.5,38.68,33.17,38.54,32.86,38.45z"/>
		<path fill="#F2D7BC" d="M32.67,38.39c-0.03-0.01-0.06-0.02-0.09-0.02C32.61,38.38,32.64,38.39,32.67,38.39z"/>
		<path fill="#F2D7BC" d="M50.23,65.47C50.23,65.47,50.23,65.47,50.23,65.47L50.23,65.47c0-2.55,0-5.29,0-8.12
			c-3.3,0-5.97-1.09-5.97-2.43h5.97c0-10.88,0-22.66,0-30.18c-0.03,0-0.06,0-0.09,0c-9.45,0.02-13.87,2.67-13.87,6.39
			c0,3.73,0.87,3.83,0.87,3.83s0,0.72,0,3.17c-1.01,0.71-1.41,2.09-1.55,3.39c0.19,0.54,0.32,1.12,0.39,1.74
			c0.31,2.95-1.07,5.55-3.08,5.93c1.16,5.58,3.11,9.26,4.15,10.59c0.73,0.93,3.17,2.39,5.89,3.6C45.55,64.55,48.4,65.47,50.23,65.47
			C50.23,65.47,50.23,65.47,50.23,65.47z"/>
		<path fill="#F2D7BC" d="M35.99,43.27c-0.06-0.62-0.2-1.2-0.39-1.74c-0.17,1.61,0.06,3.1,0.06,3.1H34.4c0,0,0.44-4.8-0.61-5.7
			c-0.3-0.22-0.61-0.38-0.93-0.48c-0.06-0.02-0.13-0.04-0.19-0.05c-0.03-0.01-0.06-0.01-0.09-0.02c-0.22-0.04-0.43-0.06-0.61-0.06
			c-0.1,0-0.21,0.01-0.31,0.02c-2.08,0.29-3.52,2.96-3.2,5.97c0.31,3.01,2.25,5.22,4.33,4.94c0.04-0.01,0.08-0.03,0.13-0.04
			C34.92,48.82,36.29,46.22,35.99,43.27z"/>
		<polygon fill="#FFFFFF" points="44.69,79.98 48.05,75.72 50.23,72.94 50.23,72.94 42.95,70.01 42.84,69.96 41.01,71.81 
			41.18,72.18 		"/>
		<polygon fill="#FFFFFF" points="50.23,72.94 52.42,75.72 55.77,79.98 59.29,72.18 59.46,71.81 57.63,69.96 57.52,70.01 
			50.24,72.94 		"/>
		<rect x="34.2" y="91.77" fill="#7F97A3" width="9.23" height="2.04"/>
		<rect x="57.04" y="91.77" fill="#7F97A3" width="9.23" height="2.04"/>
		<path fill="#8B5F3C" d="M50.23,13.29c0,0-0.04,0-0.09,0.01c0.02,0,0.05,0.01,0.09,0.01C50.23,13.31,50.23,13.29,50.23,13.29z"/>
		<path fill="#8B5F3C" d="M32.58,38.37c0.03,0.01,0.06,0.01,0.09,0.02c0.06,0.01,0.12,0.03,0.19,0.05c0.31,0.09,0.64,0.23,0.93,0.48
			c0,0,0,0.01,0.01,0.01c1.05,0.9,0.61,5.7,0.61,5.7h1.26c0,0-0.23-1.5-0.06-3.1c0.14-1.3,0.54-2.68,1.55-3.39c0-2.45,0-3.17,0-3.17
			s-0.87-0.1-0.87-3.83c0-3.72,4.42-6.37,13.87-6.39c-0.03,0-0.06,0-0.09,0c0-5.21,0-11.2,0-11.43
			c-1.88,0.24-18.62,2.77-18.62,15.65c0,5.67,0,9.38,0,9.38s0.22-0.04,0.53-0.03C32.14,38.31,32.35,38.33,32.58,38.37z"/>
		<path fill="#8B5F3C" d="M50.06,24.74c0.03,0,0.06,0,0.09,0s0.06,0,0.09,0c9.38,0.03,13.78,2.68,13.78,6.39
			c0,3.73-0.87,3.83-0.87,3.83s0,0.72,0,3.17c1.12,0.79,1.49,2.41,1.58,3.83c0.09,1.43-0.1,2.66-0.1,2.66h1.26
			c0,0-0.36-3.9,0.34-5.33c0.08-0.16,0.16-0.29,0.27-0.38c0.62-0.52,1.4-0.61,1.88-0.61c0.07,0,0.13,0,0.19,0.01
			c0.04,0,0.07,0,0.1,0.01c0.11,0.01,0.18,0.02,0.18,0.02v0c0,0,0-3.72,0-9.38c0-12.88-16.75-15.41-18.62-15.65
			c-0.04,0-0.06-0.01-0.09-0.01c-0.05-0.01-0.09-0.01-0.09-0.01s0,0.02,0,0.02C50.06,13.54,50.06,19.53,50.06,24.74z"/>
		<path fill="#FFFFFF" d="M56.21,54.92h-5.97h-5.97c0,1.34,2.67,2.43,5.97,2.43S56.21,56.27,56.21,54.92z"/>
	</g>
</g>
<g>
</g>
<g>
</g>
<g>
</g>
<g>
</g>
<g>
</g>
<g>
</g>
<g>
</g>
<g>
</g>
<g>
</g>
<g>
</g>
<g>
</g>
</svg>
